<mxfile host="app.diagrams.net" modified="2024-01-22T15:30:31.726Z" agent="Mozilla/5.0 (Windows NT 10.0; Win64; x64) AppleWebKit/537.36 (KHTML, like Gecko) Chrome/120.0.0.0 Safari/537.36" etag="EI1mmEIuGDD67GHXSjpR" version="22.1.21" type="github">
  <diagram name="Page-1" id="5wk_Syi67mKXL78GF8bt">
    <mxGraphModel dx="1434" dy="746" grid="1" gridSize="10" guides="1" tooltips="1" connect="1" arrows="1" fold="1" page="1" pageScale="1" pageWidth="1100" pageHeight="850" math="0" shadow="0">
      <root>
        <mxCell id="0" />
        <mxCell id="1" parent="0" />
        <mxCell id="ltyIU091W-dR_cXolWgd-1" value="" style="rounded=0;whiteSpace=wrap;html=1;" vertex="1" parent="1">
          <mxGeometry x="355" y="240" width="390" height="225" as="geometry" />
        </mxCell>
        <mxCell id="ltyIU091W-dR_cXolWgd-2" value="Make request" style="endArrow=block;endFill=1;html=1;edgeStyle=orthogonalEdgeStyle;align=left;verticalAlign=top;rounded=0;" edge="1" parent="1">
          <mxGeometry x="-1" y="10" relative="1" as="geometry">
            <mxPoint x="80" y="280.5" as="sourcePoint" />
            <mxPoint x="140" y="280" as="targetPoint" />
            <mxPoint x="-10" y="9" as="offset" />
          </mxGeometry>
        </mxCell>
        <mxCell id="ltyIU091W-dR_cXolWgd-3" value="Trello" style="shape=cylinder3;whiteSpace=wrap;html=1;boundedLbl=1;backgroundOutline=1;size=15;" vertex="1" parent="1">
          <mxGeometry x="850" y="257.5" width="80" height="100" as="geometry" />
        </mxCell>
        <mxCell id="ltyIU091W-dR_cXolWgd-4" value="Web Browser (HTML)" style="rounded=0;whiteSpace=wrap;html=1;" vertex="1" parent="1">
          <mxGeometry x="150" y="270" width="100" height="75" as="geometry" />
        </mxCell>
        <mxCell id="ltyIU091W-dR_cXolWgd-5" value="GET or POST" style="endArrow=block;endFill=1;html=1;edgeStyle=orthogonalEdgeStyle;align=left;verticalAlign=top;rounded=0;" edge="1" parent="1">
          <mxGeometry x="-1" relative="1" as="geometry">
            <mxPoint x="260" y="280" as="sourcePoint" />
            <mxPoint x="340" y="280" as="targetPoint" />
          </mxGeometry>
        </mxCell>
        <mxCell id="ltyIU091W-dR_cXolWgd-6" value="Rendered HTML" style="endArrow=block;endFill=1;html=1;edgeStyle=orthogonalEdgeStyle;align=left;verticalAlign=top;rounded=0;" edge="1" parent="1">
          <mxGeometry x="1" y="20" relative="1" as="geometry">
            <mxPoint x="340" y="440" as="sourcePoint" />
            <mxPoint x="260" y="335" as="targetPoint" />
            <Array as="points">
              <mxPoint x="300" y="440" />
              <mxPoint x="300" y="335" />
            </Array>
            <mxPoint as="offset" />
          </mxGeometry>
        </mxCell>
        <mxCell id="ltyIU091W-dR_cXolWgd-7" value="Read or write&lt;br&gt;To Do items" style="endArrow=block;endFill=1;html=1;edgeStyle=orthogonalEdgeStyle;align=left;verticalAlign=top;rounded=0;" edge="1" parent="1">
          <mxGeometry x="-1" relative="1" as="geometry">
            <mxPoint x="760" y="270" as="sourcePoint" />
            <mxPoint x="840" y="270" as="targetPoint" />
          </mxGeometry>
        </mxCell>
        <mxCell id="ltyIU091W-dR_cXolWgd-8" value="Data response" style="endArrow=block;endFill=1;html=1;edgeStyle=orthogonalEdgeStyle;align=left;verticalAlign=top;rounded=0;" edge="1" parent="1">
          <mxGeometry x="1" relative="1" as="geometry">
            <mxPoint x="840" y="340" as="sourcePoint" />
            <mxPoint x="760" y="340" as="targetPoint" />
            <mxPoint as="offset" />
          </mxGeometry>
        </mxCell>
        <mxCell id="ltyIU091W-dR_cXolWgd-9" value="HTML Templates" style="rounded=0;whiteSpace=wrap;html=1;" vertex="1" parent="1">
          <mxGeometry x="440" y="420" width="110" height="30" as="geometry" />
        </mxCell>
        <mxCell id="ltyIU091W-dR_cXolWgd-10" value="Trello API&lt;br&gt;(JSON/HTTPS)" style="rounded=0;whiteSpace=wrap;html=1;" vertex="1" parent="1">
          <mxGeometry x="640" y="257.5" width="90" height="100" as="geometry" />
        </mxCell>
        <mxCell id="ltyIU091W-dR_cXolWgd-11" value="App.py&lt;br&gt;(Python)" style="rounded=0;whiteSpace=wrap;html=1;" vertex="1" parent="1">
          <mxGeometry x="440" y="257.5" width="110" height="100" as="geometry" />
        </mxCell>
        <mxCell id="ltyIU091W-dR_cXolWgd-12" value="Serve page" style="endArrow=block;endFill=1;html=1;edgeStyle=orthogonalEdgeStyle;align=left;verticalAlign=top;rounded=0;" edge="1" parent="1">
          <mxGeometry x="1" relative="1" as="geometry">
            <mxPoint x="140" y="340" as="sourcePoint" />
            <mxPoint x="80" y="340" as="targetPoint" />
            <mxPoint as="offset" />
          </mxGeometry>
        </mxCell>
        <mxCell id="ltyIU091W-dR_cXolWgd-13" value="Request to &lt;br&gt;read or write" style="endArrow=block;endFill=1;html=1;edgeStyle=orthogonalEdgeStyle;align=left;verticalAlign=top;rounded=0;movable=1;resizable=1;rotatable=1;deletable=1;editable=1;locked=0;connectable=1;" edge="1" parent="1">
          <mxGeometry x="-1" relative="1" as="geometry">
            <mxPoint x="560" y="270" as="sourcePoint" />
            <mxPoint x="620" y="270" as="targetPoint" />
            <mxPoint as="offset" />
          </mxGeometry>
        </mxCell>
        <mxCell id="ltyIU091W-dR_cXolWgd-14" value="Data response" style="endArrow=block;endFill=1;html=1;edgeStyle=orthogonalEdgeStyle;align=left;verticalAlign=top;rounded=0;" edge="1" parent="1">
          <mxGeometry x="1" relative="1" as="geometry">
            <mxPoint x="620" y="340" as="sourcePoint" />
            <mxPoint x="560" y="340" as="targetPoint" />
            <mxPoint as="offset" />
          </mxGeometry>
        </mxCell>
        <mxCell id="ltyIU091W-dR_cXolWgd-15" value="Web page routing" style="endArrow=block;endFill=1;html=1;edgeStyle=orthogonalEdgeStyle;align=left;verticalAlign=top;rounded=0;" edge="1" parent="1">
          <mxGeometry x="-1" y="6" relative="1" as="geometry">
            <mxPoint x="494.5" y="370" as="sourcePoint" />
            <mxPoint x="494.5" y="410" as="targetPoint" />
            <mxPoint as="offset" />
          </mxGeometry>
        </mxCell>
        <mxCell id="ltyIU091W-dR_cXolWgd-16" value="Web Server&lt;br&gt;(Gunicorn)" style="rounded=0;whiteSpace=wrap;html=1;" vertex="1" parent="1">
          <mxGeometry x="370" y="258" width="60" height="192" as="geometry" />
        </mxCell>
        <mxCell id="ltyIU091W-dR_cXolWgd-17" value="&lt;font style=&quot;font-size: 12px;&quot;&gt;To Do App&lt;br&gt;&lt;span style=&quot;font-weight: normal;&quot;&gt;(Docker container)&lt;/span&gt;&lt;br&gt;&lt;/font&gt;" style="text;strokeColor=none;align=center;fillColor=none;html=1;verticalAlign=middle;whiteSpace=wrap;rounded=0;fontStyle=1" vertex="1" parent="1">
          <mxGeometry x="610" y="420" width="105" height="30" as="geometry" />
        </mxCell>
        <mxCell id="ltyIU091W-dR_cXolWgd-18" value="User" style="sketch=0;outlineConnect=0;fontColor=#232F3E;gradientColor=none;strokeColor=#232F3E;fillColor=#ffffff;dashed=0;verticalLabelPosition=bottom;verticalAlign=top;align=center;html=1;fontSize=12;fontStyle=0;aspect=fixed;shape=mxgraph.aws4.resourceIcon;resIcon=mxgraph.aws4.user;" vertex="1" parent="1">
          <mxGeometry x="10" y="270" width="60" height="60" as="geometry" />
        </mxCell>
      </root>
    </mxGraphModel>
  </diagram>
</mxfile>
